<svg id="OK_Symbol" data-name="OK Symbol" xmlns="http://www.w3.org/2000/svg" width="50" height="50" viewBox="0 0 50 50">
    <path id="Exclusion_2" data-name="Exclusion 2" d="M5074-239h-50v-50h50v50Zm-37.527-22.265a10.754,10.754,0,0,0-7.516,3.019,9.967,9.967,0,0,0-3.111,7.186,10.05,10.05,0,0,0,3.117,7.255,10.745,10.745,0,0,0,7.528,3.027,10.684,10.684,0,0,0,7.484-3.005,9.975,9.975,0,0,0,3.091-7.224,10.019,10.019,0,0,0-3.106-7.253A10.711,10.711,0,0,0,5036.473-261.265Zm32.386,19.735c1.188,0,2.346.035,3.321.07v-.769a5.388,5.388,0,0,1-1.971-.528c-2.72-1.313-5.765-4.628-8.452-7.552-1.021-1.112-1.985-2.161-2.838-3,.55-.453,1.113-.95,1.709-1.475,1.907-1.682,4.065-3.586,6.292-4.409a11.379,11.379,0,0,1,3.318-.68v-.716h-10.071v.716a3.3,3.3,0,0,1,1.625.457,1.2,1.2,0,0,1,.609.933,2.708,2.708,0,0,1-1.088,1.906l-5.761,4.677v-24.233a65.813,65.813,0,0,1-7.015.77v.666c3.079,0,3.323,1.937,3.323,4.47v24.356a4.3,4.3,0,0,1-.694,2.86,3.814,3.814,0,0,1-2.629.8v.742h.116c1.088,0,2.181-.013,3.238-.026,1.092-.013,2.222-.027,3.334-.027,1.249,0,2.346.018,3.353.054v-.769a3.305,3.305,0,0,1-2.394-.812,4.553,4.553,0,0,1-.631-2.826v-4.94l.583-.508,9.855,9.855h.159C5067.013-241.507,5067.9-241.53,5068.859-241.53Zm-32.39-.182h0a5.689,5.689,0,0,1-4.667-2.571c-2.414-3.5-2.424-10.077-.021-13.54a5.676,5.676,0,0,1,4.677-2.539,5.669,5.669,0,0,1,4.672,2.539,12.165,12.165,0,0,1,1.8,6.774,12.236,12.236,0,0,1-1.811,6.779A5.667,5.667,0,0,1,5036.469-241.711Z" transform="translate(-5024 289)" fill="#333"/>
</svg>
  