<svg id="logo_BC_inverted" xmlns="http://www.w3.org/2000/svg" width="159.724" height="60" viewBox="0 0 159.724 60">
  <g id="Group_1196" data-name="Group 1196" transform="translate(33.363)">
    <g id="Group_1195" data-name="Group 1195" transform="translate(0)">
      <rect id="Rectangle_1689" data-name="Rectangle 1689" width="32.015" height="32.015" fill="#e42613"/>
    </g>
  </g>
  <g id="Group_1198" data-name="Group 1198" transform="translate(146.059 34.683)">
    <g id="Group_1197" data-name="Group 1197" transform="translate(0 0)">
      <path id="Path_802" data-name="Path 802" d="M-49.263-111.776c2.3,0,3.008-2.213,3.048-4.149.05-2.355-.784-4.2-3.053-4.151s-3.062,2.226-3.062,4.151.78,4.149,3.062,4.149Zm-1.6,6.621c-1.295.335-3.621,1.228-3.621,2.892,0,3.439,7.165,3.545,9.4,2.347,2.065-1.107,1.831-3.015-.222-3.973a20.742,20.742,0,0,0-5.563-1.266Zm-1.039-.236c-2.037-.49-3.946-2.2-1.778-4.154a10.808,10.808,0,0,1,2.981-1.7,4.721,4.721,0,0,1-3.857-4.607c0-3.268,2.7-4.835,5.684-4.835.089,0,.617.036,1.586.1,1.678.115,3.35.1,5.03.1v1.173h-3.062a4.929,4.929,0,0,1,.181,6.439A7.048,7.048,0,0,1-48.7-111.18c-1.052.229-3.994,1.035-3.994,2.5,0,.711,1.083,1.293,3.248,1.737,1.925.364,4.465.788,6.042,1.888a2.542,2.542,0,0,1,1.151,2.2,4.051,4.051,0,0,1-2.213,3.44c-2.515,1.534-7.07,2.009-9.771.416-1.871-1.1-2.288-3.163-.7-4.705a8.39,8.39,0,0,1,3.035-1.689Z" transform="translate(55.92 120.689)" fill="#fff" fill-rule="evenodd"/>
    </g>
  </g>
  <g id="Group_1200" data-name="Group 1200" transform="translate(130.395 34.617)">
    <g id="Group_1199" data-name="Group 1199" transform="translate(0)">
      <path id="Path_803" data-name="Path 803" d="M-32.982-1.286c0,1.569.37,2.251,1.991,2.346l-.019.476c-2.155-.077-4.277,0-6.429,0V1.06c1.689-.037,2.128-.7,2.128-2.346V-7.378a4.124,4.124,0,0,0-.436-2.235,1.9,1.9,0,0,0-1.692-.622v-.476c1.488-.088,2.979-.188,4.457-.391v2.532c1.527-2.012,5.607-4.122,7.642-1.182,1.415,2.045.965,6.015.965,8.465,0,1.646.437,2.309,2.128,2.346v.476c-2.152,0-4.273-.078-6.429,0l-.018-.476c1.615-.1,1.99-.78,1.99-2.346,0-1.981.432-5.938-.648-7.607-.872-1.348-2.7-1.173-3.915-.454a6.192,6.192,0,0,0-1.715,1.613Z" transform="translate(37.439 11.203)" fill="#fff" fill-rule="evenodd"/>
    </g>
  </g>
  <g id="Group_1202" data-name="Group 1202" transform="translate(122.504 34.683)">
    <g id="Group_1201" data-name="Group 1201" transform="translate(0 0)">
      <path id="Path_804" data-name="Path 804" d="M-33.594-106.45l.014,9.851a2.845,2.845,0,0,0,.417,1.8,2.206,2.206,0,0,0,1.56.542v.476c-2.181-.047-4.348-.075-6.53,0l.012-.476a2.378,2.378,0,0,0,1.676-.506,2.744,2.744,0,0,0,.452-1.839v-6.088c0-1.674-.183-2.862-2.128-2.862l.019-.493c1.509-.062,3.014-.2,4.509-.409" transform="translate(38.133 106.45)" fill="#fff" fill-rule="evenodd"/>
    </g>
  </g>
  <g id="Group_1204" data-name="Group 1204" transform="translate(112.537 30.737)">
    <g id="Group_1203" data-name="Group 1203" transform="translate(0 0)">
      <path id="Path_805" data-name="Path 805" d="M-33.966-152.578v4.216h4.15v.938h-4.15v6.417a6.747,6.747,0,0,0,.542,3.194c.89,1.515,2.946,1,4.133.155l.24.306c-1.557,1.581-4.859,2.937-6.417.569a7.255,7.255,0,0,1-.827-3.919v-6.723h-2.261v-.524A8.521,8.521,0,0,0-36.13-149.9a8.411,8.411,0,0,0,1.533-2.675Z" transform="translate(38.556 152.578)" fill="#fff" fill-rule="evenodd"/>
    </g>
  </g>
  <g id="Group_1206" data-name="Group 1206" transform="translate(104.85 25.157)">
    <g id="Group_1205" data-name="Group 1205" transform="translate(0 0)">
      <path id="Path_806" data-name="Path 806" d="M-16.239-150.968c0-1.7-.256-2.857-2.194-2.857v-.493c1.522-.046,3.048-.239,4.558-.426v19.377a2.855,2.855,0,0,0,.413,1.8,2.236,2.236,0,0,0,1.577.542l-.017.476c-2.192-.047-4.34-.074-6.532,0v-.476a2.424,2.424,0,0,0,1.724-.524,2.678,2.678,0,0,0,.471-1.822Z" transform="translate(18.433 154.745)" fill="#fff" fill-rule="evenodd"/>
    </g>
  </g>
  <g id="Group_1208" data-name="Group 1208" transform="translate(88.736 34.683)">
    <g id="Group_1207" data-name="Group 1207" transform="translate(0)">
      <path id="Path_807" data-name="Path 807" d="M-79.178-73.13a4.141,4.141,0,0,0-.435-2.235,1.9,1.9,0,0,0-1.694-.622l-.016-.493c1.508-.064,3.013-.2,4.509-.409V-67.7a4.062,4.062,0,0,0,.44,2.231,1.9,1.9,0,0,0,1.689.622v.493c-1.5.072-3,.173-4.492.378v-2.364a6.33,6.33,0,0,1-4.63,2.329c-3.312,0-3.941-2.9-3.941-5.626v-3.488a4.159,4.159,0,0,0-.435-2.239,1.893,1.893,0,0,0-1.693-.622v-.493c1.494-.069,2.976-.194,4.457-.409l.013,7.456c0,1.842.271,4.181,2.639,4.181a4.776,4.776,0,0,0,3.591-1.955Z" transform="translate(89.878 76.889)" fill="#fff" fill-rule="evenodd"/>
    </g>
  </g>
  <g id="Group_1210" data-name="Group 1210" transform="translate(78.961 34.599)">
    <g id="Group_1209" data-name="Group 1209" transform="translate(0 0)">
      <path id="Path_808" data-name="Path 808" d="M0,11.768V7.511H.493A4.769,4.769,0,0,0,1.808,10.3a3.511,3.511,0,0,0,2.542,1.022,2.262,2.262,0,0,0,2.47-2.262c0-2.24-4.64-3.2-5.972-4.794A3.038,3.038,0,0,1,.169,2.255a3.117,3.117,0,0,1,1.1-2.431,4.04,4.04,0,0,1,2.782-.972,5.44,5.44,0,0,1,1.479.239,5.753,5.753,0,0,0,1.022.24.674.674,0,0,0,.765-.546l.36-.018V2.392H7.181A3.219,3.219,0,0,0,4.044-.6C2.255-.6,1.051,1.153,2.333,2.486,3.739,3.947,6.28,4.152,7.723,5.809a3.385,3.385,0,0,1,.817,2.3,3.965,3.965,0,0,1-4.186,3.808c-1.146,0-2.227-.692-3.132-.782a.7.7,0,0,0-.8.644Z" transform="translate(0 1.233)" fill="#fff" fill-rule="evenodd"/>
    </g>
  </g>
  <g id="Group_1212" data-name="Group 1212" transform="translate(62 34.683)">
    <g id="Group_1211" data-name="Group 1211" transform="translate(0)">
      <path id="Path_809" data-name="Path 809" d="M-36.1,3.1a2.252,2.252,0,0,0,1.568.542l-.017.476c-2.121-.077-4.208-.067-6.332,0h-.1V3.646a2.375,2.375,0,0,0,1.675-.506,2.744,2.744,0,0,0,.453-1.84V-4.791a4.141,4.141,0,0,0-.435-2.235,1.9,1.9,0,0,0-1.693-.622v-.475c1.489-.088,2.98-.189,4.457-.391v2.532A6.406,6.406,0,0,1-31.852-8.55c3.325,0,3.932,2.94,3.932,5.665V1.3c0,1.647.437,2.31,2.129,2.346v.476h-.1c-2.122-.067-4.208-.077-6.327,0l-.018-.476c1.616-.095,1.99-.78,1.99-2.346V-3.09c0-1.89-.277-4.221-2.692-4.221a4.722,4.722,0,0,0-3.585,2.164c0,1.462-.506,7.205.422,8.251" transform="translate(40.983 8.55)" fill="#fff" fill-rule="evenodd"/>
    </g>
  </g>
  <g id="Group_1214" data-name="Group 1214" transform="translate(46.539 34.683)">
    <g id="Group_1213" data-name="Group 1213" transform="translate(0 0)">
      <path id="Path_810" data-name="Path 810" d="M-19.763-48.468c0,2.525,1.016,5.954,4.114,5.954,3.119,0,4.119-3.411,4.119-5.954,0-2.569-.962-5.972-4.119-5.972s-4.114,3.408-4.114,5.972m-2.671,0a6.66,6.66,0,0,1,6.785-6.549,6.639,6.639,0,0,1,6.789,6.549,6.625,6.625,0,0,1-6.789,6.55,6.675,6.675,0,0,1-6.785-6.55" transform="translate(22.433 55.017)" fill="#fff" fill-rule="evenodd"/>
    </g>
  </g>
  <g id="Group_1216" data-name="Group 1216" transform="translate(21.783 17.72)">
    <g id="Group_1215" data-name="Group 1215" transform="translate(0 0)">
      <path id="Path_811" data-name="Path 811" d="M-464.262-108.5v2.568a16.468,16.468,0,0,1,2.581-1.981,3.412,3.412,0,0,1,2.782-.493,4.543,4.543,0,0,1,.915.4l-1,2.208a7.29,7.29,0,0,0-2.556-.7,3.881,3.881,0,0,0-2.72,1.4v6.416a2.75,2.75,0,0,0,.458,1.862,2.438,2.438,0,0,0,1.737.466v.493c-2.261-.074-4.477-.048-6.735,0l-.018-.476a2.517,2.517,0,0,0,1.733-.533,2.667,2.667,0,0,0,.462-1.813v-6.092c0-1.7-.255-2.857-2.2-2.857v-.476q2.286-.14,4.559-.391m-15.459,4.27h6.754c-.015-1.992-1-3.794-3.2-3.794-2.237,0-3.235,1.816-3.555,3.794m9.509,6.038a6.56,6.56,0,0,1-5.359,2.755,6.462,6.462,0,0,1-6.616-6.665,6.248,6.248,0,0,1,6.359-6.482,4.991,4.991,0,0,1,5.345,5.016h-9.238c0,3.3,1.278,7.181,5.221,7.181a5.134,5.134,0,0,0,3.946-2.19Zm-52.23-10.308v2.568a16.406,16.406,0,0,1,2.582-1.981,3.39,3.39,0,0,1,3.7-.093l-1,2.208a13.9,13.9,0,0,0-1.507-.534,3.143,3.143,0,0,0-2.435.191,5.112,5.112,0,0,0-1.333,1.04v6.416c0,1.715.454,2.328,2.2,2.328v.493c-.951-.031-1.666-.054-2.128-.058-.879-.009-1.755-.008-2.635.009-.475.009-1.138.031-1.973.049l-.017-.476c1.686-.061,2.194-.667,2.194-2.346v-6.092c0-1.7-.255-2.857-2.194-2.857v-.476q2.284-.14,4.558-.391" transform="translate(527 108.589)" fill="#fff" fill-rule="evenodd"/>
    </g>
  </g>
  <g id="Group_1218" data-name="Group 1218" transform="translate(34.545 8.241)">
    <g id="Group_1217" data-name="Group 1217" transform="translate(0 0)">
      <path id="Path_812" data-name="Path 812" d="M-140.754-49.767l3.688-2.995c.512-.44,1.109-1.292.307-1.817a2.087,2.087,0,0,0-1.04-.293v-.458h6.448v.458a7.267,7.267,0,0,0-2.124.435c-1.86.688-3.611,2.523-5.123,3.768,1.964,1.921,4.815,5.589,7.229,6.754a3.435,3.435,0,0,0,1.263.338v.493c-1.31-.046-2.547-.071-3.862,0h-.1l-6.31-6.31-.373.325v3.163a2.91,2.91,0,0,0,.4,1.809,2.117,2.117,0,0,0,1.533.52v.493c-2.156-.077-4.277,0-6.429,0v-.475a2.447,2.447,0,0,0,1.684-.516,2.754,2.754,0,0,0,.444-1.831V-61.5c0-1.672-.184-2.862-2.128-2.862v-.427a42.5,42.5,0,0,0,4.492-.493Zm-17.029-4.065a6.946,6.946,0,0,1,9.606-.009,6.4,6.4,0,0,1,.009,9.269,6.944,6.944,0,0,1-9.611-.014,6.356,6.356,0,0,1,0-9.246m1.822,8.94a3.527,3.527,0,0,0,5.963.009,8.728,8.728,0,0,0,.009-8.678,3.569,3.569,0,0,0-5.986,0,8.7,8.7,0,0,0,.014,8.669" transform="translate(159.775 65.283)" fill="#fff" fill-rule="evenodd"/>
    </g>
  </g>
  <g id="Group_1220" data-name="Group 1220" transform="translate(20.998 33.665)">
    <g id="Group_1219" data-name="Group 1219" transform="translate(0 0)">
      <path id="Path_813" data-name="Path 813" d="M-170.386-33.4c-1.978,4.246-5.928,6.354-10.527,6.354a12.208,12.208,0,0,1-12.5-12.626,13.849,13.849,0,0,1,2.444-8.055,12.921,12.921,0,0,1,11.009-5.532,17.7,17.7,0,0,1,4.294.583,11.222,11.222,0,0,0,2.661.589,1.691,1.691,0,0,0,1.278-1.294h.511v7.821h-.511c-.952-4.351-3.935-6.827-8.4-6.827-6.6,0-9.671,5.382-9.671,11.4,0,6.237,3.429,12.626,10.394,12.626,3.785,0,6.561-2.163,8.377-5.355Z" transform="translate(193.411 53.378)" fill="#fff" fill-rule="evenodd"/>
    </g>
  </g>
  <g id="Group_1222" data-name="Group 1222" transform="translate(0 16.517)">
    <g id="Group_1221" data-name="Group 1221" transform="translate(0 0)">
      <path id="Path_814" data-name="Path 814" d="M-48.634-199.994v10.476h2.527c3.347,0,6.189-1.665,6.189-5.31,0-3.917-3.442-5.316-6.85-5.316a11.382,11.382,0,0,0-1.866.15m-6.572,23.936v-.594c2.8-.055,3.255-2.229,3.255-4.589v-14.626c0-2.384-.445-4.51-3.255-4.577v-.617h8.144c3.945,0,10.354.659,10.354,5.978,0,3.179-2.753,4.957-5.443,5.888,3.48.63,6.977,2.7,6.977,6.655,0,5.71-5.97,6.482-10.382,6.482Zm6.572-12.542v7.677c0,1.7.25,2.8.739,3.294a4.274,4.274,0,0,0,2.955.744c3.61,0,6.021-2.038,6.021-5.737,0-4.3-3.42-5.977-7.271-5.977Z" transform="translate(55.206 201.061)" fill="#fff" fill-rule="evenodd"/>
    </g>
  </g>
  <g id="Group_1224" data-name="Group 1224" transform="translate(93.461 11.897)">
    <g id="Group_1223" data-name="Group 1223" transform="translate(0 0)">
      <path id="Path_815" data-name="Path 815" d="M-21.735-44.932a2.472,2.472,0,0,1,2.467,2.468A2.472,2.472,0,0,1-21.735-40,2.473,2.473,0,0,1-24.2-42.464a2.472,2.472,0,0,1,2.468-2.468m0-.468A2.942,2.942,0,0,1-18.8-42.464a2.942,2.942,0,0,1-2.937,2.937,2.942,2.942,0,0,1-2.937-2.937A2.943,2.943,0,0,1-21.736-45.4" transform="translate(24.672 45.4)" fill="#fff" fill-rule="evenodd"/>
    </g>
  </g>
  <g id="Group_1226" data-name="Group 1226" transform="translate(95.219 13.35)">
    <g id="Group_1225" data-name="Group 1225" transform="translate(0)">
      <path id="Path_816" data-name="Path 816" d="M-4.468-13.07l.605,0c.279,0,.614-.011.614-.407,0-.369-.367-.372-.645-.372h-.574Zm-.6,1.708V-14.35H-3.8c.6,0,1.134.214,1.141.847a.758.758,0,0,1-.755.823,1.918,1.918,0,0,1,.667.736l.364.583h-.722c-.19-.317-.577-1.088-.935-1.214a1.353,1.353,0,0,0-.427-.034v1.248Z" transform="translate(5.072 14.35)" fill="#fff" fill-rule="evenodd"/>
    </g>
  </g>
  <g id="Group_1228" data-name="Group 1228" transform="translate(123.932 28)">
    <g id="Group_1227" data-name="Group 1227" transform="translate(0 0)">
      <ellipse id="Ellipse_8" data-name="Ellipse 8" cx="1.601" cy="1.601" rx="1.601" ry="1.601" transform="translate(0)" fill="#fff"/>
    </g>
  </g>
</svg>
