<svg xmlns="http://www.w3.org/2000/svg" width="49.998" height="49.998" viewBox="0 0 49.998 49.998">
  <g id="Icons" transform="translate(0 -1996)">
    <g id="Icon_Money" data-name="Icon Money" transform="translate(0 1996)">
      <g id="Group_2197" data-name="Group 2197" transform="translate(1 7)">
        <path id="Path_17044" data-name="Path 17044" d="M41.629,11.36A34.562,34.562,0,0,0,25.142,7.55,34.562,34.562,0,0,0,8.656,11.36C4,13.948,1.437,17.466,1.437,21.274V28.76c0,3.805,2.563,7.326,7.219,9.914a34.562,34.562,0,0,0,16.486,3.81,34.562,34.562,0,0,0,16.486-3.81c4.656-2.588,7.219-6.106,7.219-9.914V21.274c0-3.805-2.563-7.326-7.219-9.914M9.869,13.544a32.048,32.048,0,0,1,15.274-3.5,32.048,32.048,0,0,1,15.274,3.5c3.828,2.126,5.936,4.873,5.936,7.73s-2.109,5.6-5.936,7.73a32.048,32.048,0,0,1-15.274,3.5A32.048,32.048,0,0,1,9.869,29c-3.828-2.126-5.936-4.873-5.936-7.73s2.109-5.6,5.936-7.73M46.352,28.76c0,2.862-2.109,5.6-5.936,7.73a32.048,32.048,0,0,1-15.274,3.5,32.048,32.048,0,0,1-15.274-3.5c-3.828-2.126-5.936-4.873-5.936-7.73V27.48a17.315,17.315,0,0,0,4.724,3.708A34.562,34.562,0,0,0,25.142,35a34.562,34.562,0,0,0,16.486-3.81,17.267,17.267,0,0,0,4.724-3.708Z" transform="translate(-1.437 -7.55)" fill="#333"/>
        <path id="Path_17045" data-name="Path 17045" d="M7.512,11.356V14.7H12.17l3.523-3.344h2.825l-4.247,3.982,4.584,4.619H15.961l-3.718-3.84H7.512v3.84H5.051v-8.6Z" transform="translate(3.967 -1.859)" fill="#333"/>
        <path id="Path_17046" data-name="Path 17046" d="M23.325,15.97a5.54,5.54,0,0,0-1.944-1.08,8.98,8.98,0,0,0-2.812-.382,8.764,8.764,0,0,0-2.039.217,5.1,5.1,0,0,0-1.545.624,3.02,3.02,0,0,0-.991.978,2.425,2.425,0,0,0-.349,1.275,2.293,2.293,0,0,0,.362,1.253,3.207,3.207,0,0,0,1.013.981,5.3,5.3,0,0,0,1.557.636,8.143,8.143,0,0,0,1.991.227,8.765,8.765,0,0,0,2.79-.382,6.026,6.026,0,0,0,1.966-1.1l1.931.731a7.058,7.058,0,0,1-2.7,1.6,12.273,12.273,0,0,1-3.933.559,13.171,13.171,0,0,1-2.947-.309,8.531,8.531,0,0,1-2.358-.9,4.631,4.631,0,0,1-1.57-1.422,3.317,3.317,0,0,1-.561-1.884,3.27,3.27,0,0,1,.574-1.881,4.763,4.763,0,0,1,1.58-1.422,8.5,8.5,0,0,1,2.361-.9,13.024,13.024,0,0,1,2.922-.309,12.372,12.372,0,0,1,3.92.551,6.664,6.664,0,0,1,2.692,1.609Zm-4.514-4.853,2.63-1.058.966.823-3.6,1.712L15.19,10.882l1.013-.823Z" transform="translate(13.136 -3.798)" fill="#333"/>
      </g>
      <rect id="space" width="49.998" height="49.998" fill="#333" opacity="0"/>
    </g>
  </g>
</svg>
