<svg id="Icon_Air" data-name="Icon Air" xmlns="http://www.w3.org/2000/svg" width="49.998" height="49.998" viewBox="0 0 49.998 49.998">
    <g id="Group_2187" data-name="Group 2187" transform="translate(0 7)">
      <path id="Path_17026" data-name="Path 17026" d="M32.21,13.5H12.248a1.248,1.248,0,1,1,0-2.5H32.21a1.248,1.248,0,1,1,0,2.5" transform="translate(16.448 16.448)" fill="#333"/>
      <path id="Path_17027" data-name="Path 17027" d="M46.163,17.467H24.953a7.486,7.486,0,1,1,7.411-8.556,1.248,1.248,0,0,0,2.47-.354,9.982,9.982,0,1,0-16.476,8.911H6.238a3.743,3.743,0,1,1,3.244-5.614,1.247,1.247,0,0,0,2.158-1.25,6.238,6.238,0,1,0-5.4,9.357H46.163a1.248,1.248,0,1,0,0-2.5Z" transform="translate(0 0)" fill="#333"/>
      <path id="Path_17028" data-name="Path 17028" d="M8.238,21.476A6.238,6.238,0,1,1,8.238,9H35.687a1.248,1.248,0,1,1,0,2.5H8.238a3.743,3.743,0,1,0,3.244,5.614,1.247,1.247,0,0,1,2.158,1.25,6.262,6.262,0,0,1-5.4,3.119Z" transform="translate(2.991 13.458)" fill="#333"/>
    </g>
    <rect id="space" width="49.998" height="49.998" fill="#333" opacity="0"/>
</svg>
  