<svg id="Model_Icon" data-name="Model Icon" xmlns="http://www.w3.org/2000/svg" width="20" height="20" viewBox="0 0 20 20">
    <rect id="space" width="20" height="20" fill="#fff" opacity="0"/>
    <path id="Path_17008" data-name="Path 17008" d="M22.769,18.487V9.774a1.326,1.326,0,0,0-.662-1.146L14.793,4.4a1.79,1.79,0,0,0-1.785,0L5.693,8.628a1.327,1.327,0,0,0-.661,1.146v8.713a1.327,1.327,0,0,0,.661,1.146l7.546,4.357a1.328,1.328,0,0,0,1.324,0l7.545-4.357a1.326,1.326,0,0,0,.662-1.146m-9.021-12.8a.3.3,0,0,1,.3,0l6.479,3.741L13.9,13.153,7.269,9.429ZM6.513,10.7l6.664,3.744-.015,7.789L6.513,18.4Zm8.13,11.529.015-7.805L21.288,10.7V18.4Z" transform="translate(-3.9 -4.167)" fill="#333"/>
</svg>
