<svg id="Icon_Leaf" data-name="Icon Leaf" xmlns="http://www.w3.org/2000/svg" width="50" height="49.998" viewBox="0 0 50 49.998">
    <rect id="space" width="50" height="49.998" transform="translate(0 0)" fill="#fff" opacity="0"/>
    <path id="Path_17019" data-name="Path 17019" d="M49.7.445A1.244,1.244,0,0,0,48.743,0H47.468c-12.6,0-22.55-.007-29.877,1.747a21.812,21.812,0,0,0-9.3,4.347,16.694,16.694,0,0,0-5.235,8.572,21.124,21.124,0,0,0,.342,11.089,14.954,14.954,0,0,0,2.272,4.5A34.291,34.291,0,0,0,0,48.748a1.25,1.25,0,0,0,2.5,0c0-11.509,6.822-20.048,10.886-24.11a39.911,39.911,0,0,1,9.537-7.122A19.253,19.253,0,0,1,31.25,15a1.25,1.25,0,1,0,0-2.5,21.338,21.338,0,0,0-9.484,2.8,42.4,42.4,0,0,0-10.144,7.569,44.318,44.318,0,0,0-4.437,5.172,12.365,12.365,0,0,1-1.4-3.017,18.736,18.736,0,0,1-.32-9.687C9.039,2.53,22.618,2.5,47.253,2.505,44.318,18.223,38.839,28.4,30.965,32.757c-7.3,4.04-14.549,1.835-17.326.7a13.414,13.414,0,0,1-1.747-.875,1.249,1.249,0,1,0-1.277,2.147,15.541,15.541,0,0,0,2.08,1.042,24.791,24.791,0,0,0,7.162,1.717q1.027.09,2.035.09a21,21,0,0,0,10.287-2.632A27.824,27.824,0,0,0,42.524,24.183c3.335-5.762,5.844-13.4,7.457-22.713A1.236,1.236,0,0,0,49.705.453Z" transform="translate(0 0)" fill="#fff" />
</svg>
  