<svg xmlns="http://www.w3.org/2000/svg" width="49.998" height="49.998" viewBox="0 0 49.998 49.998">
  <g id="Icons" transform="translate(0 -1996)">
    <g id="Icon_Huminity" data-name="Icon Huminity" transform="translate(0 1996)">
      <g id="Group_2189" data-name="Group 2189" transform="translate(10)">
        <path id="Path_17029" data-name="Path 17029" d="M14.954,49.9a14.378,14.378,0,0,1-10.57-4.6A16.82,16.82,0,0,1,0,33.684c0-7.344,3.264-12.6,6.72-18.161,2.667-4.3,5.432-8.743,7.029-14.6a1.247,1.247,0,0,1,2.405,0c1.6,5.864,4.364,10.311,7.039,14.61,3.461,5.562,6.73,10.817,6.73,18.158A16.842,16.842,0,0,1,25.567,45.3a14.409,14.409,0,0,1-10.615,4.606Zm0-44.633A65.6,65.6,0,0,1,8.841,16.838C5.435,22.318,2.5,27.051,2.5,33.684c0,7.825,5.357,13.724,12.459,13.724s12.477-5.9,12.477-13.724c0-6.63-2.944-11.361-6.353-16.841A65.25,65.25,0,0,1,14.954,5.27" fill="#333"/>
        <path id="Path_17030" data-name="Path 17030" d="M10.467,22.98a6.958,6.958,0,0,1-5.113-2.243A9.386,9.386,0,0,1,3,14.247a1.248,1.248,0,0,1,2.5,0,6.915,6.915,0,0,0,1.677,4.781,4.493,4.493,0,0,0,3.3,1.457,4.692,4.692,0,0,0,1.031-.112,1.247,1.247,0,1,1,.551,2.433,7.233,7.233,0,0,1-1.582.175Z" transform="translate(4.487 19.437)" fill="#333"/>
      </g>
      <rect id="space" width="49.998" height="49.998" fill="#333" opacity="0"/>
    </g>
  </g>
</svg>
