<svg xmlns="http://www.w3.org/2000/svg" width="49.998" height="49.998" viewBox="0 0 49.998 49.998">
  <g id="Icons" transform="translate(0 -1996)">
    <g id="Icon_Health" data-name="Icon Health" transform="translate(0 1996)">
      <g id="Group_2195" data-name="Group 2195" transform="translate(1 3)">
        <path id="Path_17039" data-name="Path 17039" d="M18.113,24.476a1.274,1.274,0,0,1-.606-.155,68.773,68.773,0,0,1-13.4-10.188,1.247,1.247,0,1,1,1.757-1.772,67.576,67.576,0,0,0,12.247,9.422A67.708,67.708,0,0,0,30.36,12.361a1.247,1.247,0,1,1,1.757,1.772,68.855,68.855,0,0,1-13.4,10.188,1.274,1.274,0,0,1-.606.155" transform="translate(5.593 17.944)" fill="#333"/>
        <path id="Path_17040" data-name="Path 17040" d="M3.191,22.458a1.249,1.249,0,0,1-1.13-.716A20.281,20.281,0,0,1,0,13.1,13.115,13.115,0,0,1,13.1,0a12.593,12.593,0,0,1,7.311,2.58,13.7,13.7,0,0,1,3.294,3.391A13.736,13.736,0,0,1,27,2.58,12.6,12.6,0,0,1,34.31,0a13.116,13.116,0,0,1,13.1,13.1,20.318,20.318,0,0,1-2.061,8.641,1.249,1.249,0,0,1-2.261-1.06A17.781,17.781,0,0,0,44.915,13.1,10.62,10.62,0,0,0,34.31,2.5,10.844,10.844,0,0,0,24.886,9.13a1.245,1.245,0,0,1-2.363,0A10.84,10.84,0,0,0,13.1,2.5,10.618,10.618,0,0,0,2.5,13.1a17.814,17.814,0,0,0,1.824,7.578,1.248,1.248,0,0,1-.6,1.659,1.265,1.265,0,0,1-.529.12Z" transform="translate(0 0)" fill="#333"/>
        <path id="Path_17041" data-name="Path 17041" d="M23.248,23.46h-.032c-.5-.01-1.42-.272-1.879-1.911L18.3,10.734l-2.016,8.182c-.392,1.6-1.308,1.941-1.819,2s-1.477-.067-2.218-1.547l-1.515-3.022a1.273,1.273,0,0,0-.19-.292l-.027.037a6.21,6.21,0,0,1-4.774,2.378h-2.5a1.248,1.248,0,1,1,0-2.5h2.5a3.785,3.785,0,0,0,2.712-1.288,2.493,2.493,0,0,1,2.223-1.193,2.857,2.857,0,0,1,2.288,1.737l1.11,2.221,2.338-9.49c.392-1.6,1.2-1.944,1.809-1.954s1.43.312,1.874,1.9L23.3,19.32l2.937-9c.512-1.567,1.452-1.837,1.966-1.859s1.472.17,2.114,1.689l1.809,4.289a2.846,2.846,0,0,0,2.311,1.537h3.743a1.248,1.248,0,1,1,0,2.5H34.441A5.337,5.337,0,0,1,29.83,15.4L28.35,11.9l-3.179,9.732c-.514,1.582-1.412,1.829-1.924,1.829Z" transform="translate(2.991 8.979)" fill="#333"/>
      </g>
      <rect id="space" width="49.998" height="49.998" fill="#333" opacity="0"/>
    </g>
  </g>
</svg>
