<svg id="Timeline_Icon_In_Progress" data-name="Timeline Icon In Progress" xmlns="http://www.w3.org/2000/svg" width="30" height="30" viewBox="0 0 30 30">
    <path id="Ellipse_4" data-name="Ellipse 4" d="M15,2A13,13,0,0,0,5.808,24.192,13,13,0,0,0,24.192,5.808,12.915,12.915,0,0,0,15,2m0-2A15,15,0,1,1,0,15,15,15,0,0,1,15,0Z" fill="#333"/>
    <path id="Path_444" data-name="Path 444" d="M17131.875,54.226a1.125,1.125,0,0,1-.768-1.948l3.256-3.031V44.375a1.125,1.125,0,0,1,2.25,0v5.361a1.119,1.119,0,0,1-.359.823l-3.611,3.364A1.122,1.122,0,0,1,17131.875,54.226Z" transform="translate(-17120.297 -34.572)" fill="#333"/>
</svg>
