<svg xmlns="http://www.w3.org/2000/svg" width="14" height="14" viewBox="0 0 14 14">
    <g id="Group_1727" data-name="Group 1727" transform="translate(-911 -39.254)">
      <path id="Ellipse_22" data-name="Ellipse 22" d="M7,1.5A5.5,5.5,0,1,0,12.5,7,5.506,5.506,0,0,0,7,1.5M7,0A7,7,0,1,1,0,7,7,7,0,0,1,7,0Z" transform="translate(911 39.254)" fill="#fff"/>
      <path id="Path_444" data-name="Path 444" d="M17131.5,50.567a.75.75,0,0,1-.512-1.3l2.17-2.02V44a.75.75,0,1,1,1.5,0v3.574a.749.749,0,0,1-.238.549l-2.408,2.243A.748.748,0,0,1,17131.5,50.567Z" transform="translate(-16215.781 -1.211)" fill="#fff"/>
    </g>
</svg>
